<mxfile host="65bd71144e">
    <diagram id="yUs16ULibGR71BYzFcrN" name="Page-1">
        <mxGraphModel dx="915" dy="578" grid="0" gridSize="10" guides="1" tooltips="1" connect="1" arrows="1" fold="1" page="0" pageScale="1" pageWidth="827" pageHeight="1169" math="0" shadow="0">
            <root>
                <mxCell id="0"/>
                <mxCell id="1" parent="0"/>
                <mxCell id="10" value="" style="edgeStyle=none;html=1;labelBackgroundColor=none;fontSize=11;fontColor=#1A1A1A;" edge="1" parent="1" source="2" target="3">
                    <mxGeometry relative="1" as="geometry"/>
                </mxCell>
                <mxCell id="2" value="&lt;span style=&quot;font-family: Menlo, Monaco, &amp;quot;Courier New&amp;quot;, monospace; text-align: start;&quot;&gt;1.NewPrivateIssueTokenRequest&amp;nbsp;&lt;br&gt;&lt;/span&gt;&lt;span style=&quot;font-family: Menlo, Monaco, &amp;quot;Courier New&amp;quot;, monospace;&quot;&gt;privateToken私有token令牌请求req&lt;/span&gt;" style="rounded=0;whiteSpace=wrap;html=1;fillColor=#f5f5f5;strokeColor=#666666;fontColor=#333333;labelBackgroundColor=none;" parent="1" vertex="1">
                    <mxGeometry x="-78" y="23" width="354" height="62" as="geometry"/>
                </mxCell>
                <mxCell id="11" value="" style="edgeStyle=none;html=1;labelBackgroundColor=none;fontSize=11;fontColor=#1A1A1A;" edge="1" parent="1" source="3" target="5">
                    <mxGeometry relative="1" as="geometry"/>
                </mxCell>
                <mxCell id="3" value="&lt;div style=&quot;font-family: Menlo, Monaco, &amp;quot;Courier New&amp;quot;, monospace; font-size: 12px; line-height: 18px;&quot;&gt;&lt;span style=&quot;&quot;&gt;2. IssueToken 颁发token&lt;br&gt;先到注册器中拉取实现，最好写个接口约束&lt;/span&gt;&lt;/div&gt;" style="rounded=0;whiteSpace=wrap;html=1;fontSize=10;fillColor=#f5f5f5;strokeColor=#666666;fontColor=#333333;labelBackgroundColor=none;" parent="1" vertex="1">
                    <mxGeometry x="-78" y="116" width="353" height="60" as="geometry"/>
                </mxCell>
                <mxCell id="8" value="" style="edgeStyle=none;html=1;labelBackgroundColor=none;fontColor=#1A1A1A;" edge="1" parent="1" source="5" target="7">
                    <mxGeometry relative="1" as="geometry"/>
                </mxCell>
                <mxCell id="5" value="&lt;font style=&quot;font-size: 11px;&quot;&gt;3.verity token&amp;nbsp;&lt;br&gt;3.1.是否为空&lt;br&gt;3.2 判断accesstoken 是否合法&lt;br&gt;默认走token servie 如果token service没有会走rpc，因为结构提嵌套的原因&lt;br&gt;&lt;/font&gt;" style="rounded=0;whiteSpace=wrap;html=1;labelBackgroundColor=none;fontSize=10;fontColor=#333333;fillColor=#f5f5f5;strokeColor=#666666;" parent="1" vertex="1">
                    <mxGeometry x="-77" y="216" width="359" height="67" as="geometry"/>
                </mxCell>
                <mxCell id="7" value="4.判断结构体是否非法&lt;br&gt;5.从mongdb中查询accesstoken是否存在" style="rounded=0;fillColor=#f5f5f5;fontColor=#333333;strokeColor=#666666;labelBackgroundColor=none;whiteSpace=wrap;html=1;" vertex="1" parent="1">
                    <mxGeometry x="-76" y="317" width="362" height="60" as="geometry"/>
                </mxCell>
            </root>
        </mxGraphModel>
    </diagram>
</mxfile>